<svg width="64" height="53" viewBox="0 0 64 53" fill="none" xmlns="http://www.w3.org/2000/svg">
<path d="M24.8299 3.44494C20.013 1.15968 13.2802 0.0402285 4.26632 0.000484764C3.41621 -0.0109918 2.58279 0.235329 1.87718 0.706598C1.29802 1.0956 0.823918 1.62005 0.496591 2.23384C0.169263 2.84762 -0.00126438 3.53193 7.05789e-06 4.22657V42.1288C7.05789e-06 44.691 1.83452 46.6238 4.26632 46.6238C13.7415 46.6238 23.2461 47.5035 28.9389 52.8504C29.0168 52.9238 29.1147 52.973 29.2204 52.9916C29.3262 53.0103 29.4351 52.9976 29.5337 52.9553C29.6322 52.913 29.7161 52.8428 29.7749 52.7535C29.8336 52.6641 29.8647 52.5596 29.8642 52.4529V7.7929C29.8644 7.49159 29.7995 7.19373 29.674 6.91947C29.5484 6.64521 29.365 6.40093 29.1362 6.20315C27.8322 5.09541 26.3837 4.16763 24.8299 3.44494ZM62.1175 0.702624C61.4115 0.232527 60.5781 -0.0124181 59.7284 0.000484764C50.7144 0.0402285 43.9817 1.15438 39.1647 3.44494C37.611 4.16632 36.1621 5.09228 34.8571 6.19785C34.6288 6.39598 34.4459 6.64035 34.3206 6.91456C34.1953 7.18876 34.1304 7.48644 34.1305 7.7876V52.4503C34.1304 52.5528 34.1608 52.6531 34.2179 52.7385C34.275 52.824 34.3562 52.8907 34.4513 52.9305C34.5464 52.9703 34.6512 52.9812 34.7526 52.962C34.854 52.9428 34.9474 52.8943 35.0211 52.8225C38.4435 49.4443 44.4496 46.6199 59.7337 46.6212C60.8652 46.6212 61.9503 46.1745 62.7504 45.3795C63.5505 44.5845 64 43.5062 64 42.3819V4.22789C64.0016 3.53188 63.8306 2.84619 63.5023 2.23137C63.174 1.61656 62.6984 1.09152 62.1175 0.702624Z" fill="#1E5B94"/>
</svg>
